<svg version="1.0" xmlns="http://www.w3.org/2000/svg"
 width="712.000000pt" height="865.000000pt" viewBox="0 0 712.000000 865.000000"
 preserveAspectRatio="xMidYMid meet">

<g transform="translate(0.000000,865.000000) scale(0.100000,-0.100000)"
fill="#000000" stroke="none">
<path d="M1790 8367 c-3 -3 -60 -14 -127 -26 -134 -22 -329 -91 -463 -163
-232 -123 -371 -251 -527 -483 -36 -54 -101 -215 -125 -311 -19 -74 -22 -115
-22 -239 1 -213 19 -298 94 -453 73 -152 136 -237 268 -364 170 -163 347 -266
602 -351 153 -51 229 -61 450 -62 224 0 245 5 446 102 103 50 118 61 217 162
92 93 112 119 146 192 91 200 99 337 28 531 -29 81 -121 210 -203 287 -79 74
-208 149 -303 177 -86 25 -225 44 -319 44 l-62 0 2 -192 3 -193 80 -6 c99 -6
141 -26 215 -98 79 -78 95 -116 95 -221 0 -70 -4 -93 -23 -130 -65 -124 -199
-200 -351 -200 -76 0 -220 29 -301 59 -126 48 -340 215 -407 319 -20 31 -52
91 -72 132 l-36 75 0 180 c0 209 7 240 84 357 86 133 155 204 265 275 219 142
401 191 672 180 116 -5 144 -9 238 -41 133 -45 250 -98 298 -136 20 -17 41
-30 46 -30 11 0 167 -161 210 -217 41 -53 119 -200 144 -273 10 -30 33 -109
50 -175 l32 -120 4 -567 4 -568 -274 1 c-150 0 -574 -2 -943 -5 -369 -3 -843
-7 -1055 -7 -414 -2 -490 -5 -490 -21 0 -11 178 -236 395 -499 66 -81 154
-189 195 -240 124 -152 269 -330 375 -458 55 -67 115 -140 133 -164 18 -23 49
-62 70 -86 20 -24 75 -95 122 -156 78 -103 182 -232 564 -699 77 -94 187 -229
245 -301 57 -71 139 -171 180 -221 42 -50 157 -191 256 -314 432 -536 588
-722 604 -719 3 0 69 79 146 175 139 173 315 391 554 686 69 84 150 182 181
218 31 36 105 126 163 200 58 74 159 201 224 281 65 80 270 334 455 565 186
230 409 505 495 610 87 105 179 218 204 250 49 61 304 374 507 622 192 234
207 255 185 263 -10 4 -616 8 -1347 8 -731 1 -1331 3 -1333 5 -6 6 -3 1057 3
1126 10 110 99 396 135 436 10 11 19 24 19 28 0 21 100 168 149 219 191 199
440 310 726 324 134 6 217 -4 351 -42 346 -101 584 -328 659 -630 33 -134 6
-307 -73 -460 -50 -96 -207 -253 -317 -317 -118 -68 -131 -73 -235 -99 -67
-16 -126 -23 -200 -23 -98 -1 -110 1 -172 31 -77 36 -142 98 -178 169 -20 40
-25 63 -25 129 0 96 22 141 107 221 74 70 109 86 203 93 l80 6 -3 142 c-2 78
-5 150 -7 160 -2 10 -4 33 -4 51 l-1 32 -79 0 c-235 0 -452 -92 -617 -262 -95
-97 -144 -170 -175 -259 -20 -56 -23 -85 -23 -229 l-1 -165 37 -77 c92 -193
208 -308 414 -411 165 -83 210 -92 439 -92 158 0 217 4 280 19 76 17 348 111
397 137 229 120 478 352 594 556 110 192 160 478 120 686 -50 260 -192 498
-413 692 -154 135 -447 281 -663 330 -113 26 -616 33 -767 11 -109 -16 -217
-47 -283 -81 -18 -9 -58 -26 -87 -36 -64 -22 -228 -119 -330 -195 -234 -177
-414 -482 -444 -754 -6 -52 -14 -108 -18 -125 -7 -27 -9 -23 -15 30 -24 197
-58 315 -132 451 -79 148 -206 299 -339 403 -186 147 -509 288 -713 311 -100
11 -555 25 -562 17z m3234 -3056 l428 -6 -43 -56 c-24 -31 -91 -114 -149 -185
-58 -70 -116 -144 -130 -164 -14 -20 -40 -54 -57 -76 -18 -21 -83 -104 -145
-184 -62 -80 -144 -184 -182 -231 -39 -47 -100 -123 -136 -169 -77 -100 -365
-459 -464 -581 -39 -47 -96 -119 -126 -159 -30 -41 -73 -94 -96 -119 -22 -25
-78 -95 -124 -156 -129 -169 -280 -355 -288 -354 -8 0 -154 171 -208 244 -21
28 -144 182 -273 344 -130 161 -245 305 -256 320 -19 25 -181 228 -490 616
-84 105 -170 215 -192 245 -22 30 -50 64 -63 75 -12 11 -36 40 -53 65 -16 25
-35 50 -41 55 -7 6 -25 28 -41 50 -16 22 -50 65 -76 95 -26 30 -71 89 -100
130 -30 41 -63 84 -75 96 -11 12 -35 42 -53 67 l-32 47 1518 -1 c835 -1 1711
-5 1947 -8z"/>
<path d="M3078 4860 c-223 -3 -409 -8 -413 -12 -12 -12 24 -65 226 -329 111
-145 289 -381 397 -524 193 -258 207 -275 228 -275 6 0 139 169 295 376 584
773 551 727 535 743 -29 28 -344 34 -1268 21z"/>
<path d="M4865 1529 c-28 -17 -35 -17 -90 -4 -119 28 -211 16 -272 -38 -49
-43 -73 -99 -73 -170 0 -108 30 -144 206 -242 119 -67 154 -101 154 -149 0
-91 -122 -131 -216 -70 -34 23 -91 103 -101 144 -6 24 -16 36 -30 38 -19 3
-23 -3 -29 -44 -6 -44 2 -203 11 -213 3 -2 22 4 43 13 35 16 44 16 98 3 107
-27 140 -29 206 -12 110 28 169 112 169 239 0 105 -42 154 -213 245 -111 60
-138 87 -138 141 0 106 166 105 238 -1 15 -22 37 -52 49 -67 19 -23 24 -25 33
-12 13 19 9 195 -5 208 -6 6 -22 2 -40 -9z"/>
<path d="M1955 1526 c-16 -7 -50 -30 -75 -51 l-45 -38 -3 42 -3 41 -132 -1
c-73 -1 -143 -4 -157 -8 l-25 -8 36 -22 c32 -19 37 -27 43 -74 10 -84 7 -489
-4 -528 -7 -27 -19 -40 -41 -49 -62 -26 -27 -35 151 -38 192 -3 214 3 165 42
l-30 24 -4 240 c-4 276 -1 288 74 324 40 19 47 20 70 8 48 -26 50 -38 49 -307
-1 -269 -2 -275 -51 -294 -13 -5 -23 -15 -23 -24 0 -13 23 -15 182 -13 113 2
183 7 185 13 2 6 -10 18 -27 28 -40 24 -45 55 -45 298 0 232 4 248 67 280 45
23 91 25 111 4 22 -22 29 -115 25 -344 l-3 -203 -32 -27 c-18 -15 -33 -33 -33
-39 0 -15 356 -17 365 -2 3 5 -6 17 -20 26 -14 9 -31 26 -37 38 -7 13 -14 121
-19 280 l-8 259 -28 46 c-40 65 -98 94 -178 88 -70 -5 -105 -21 -170 -77 -44
-38 -65 -44 -65 -17 0 20 -49 66 -87 82 -43 18 -137 19 -178 1z"/>
<path d="M3041 1524 c-62 -17 -114 -52 -142 -98 -28 -43 -22 -131 11 -158 47
-38 153 -13 166 38 6 23 -8 83 -32 141 -8 18 49 43 98 43 51 0 105 -30 113
-62 3 -13 5 -61 3 -108 l-3 -85 -100 -36 c-127 -46 -196 -81 -244 -124 -51
-46 -64 -82 -59 -153 6 -82 33 -117 106 -138 52 -15 62 -15 132 0 42 9 96 29
123 46 58 36 65 37 69 9 2 -12 15 -31 30 -42 53 -40 218 -13 247 41 13 25 6
32 -35 32 l-32 0 -4 253 c-4 285 -8 299 -77 359 -35 30 -54 37 -117 47 -99 15
-187 13 -253 -5z m223 -375 c3 -17 6 -76 6 -130 l0 -99 -54 -27 c-65 -32 -98
-27 -122 19 -19 37 -16 116 7 163 15 32 112 105 139 105 12 0 20 -11 24 -31z"/>
<path d="M3894 1529 c-84 -24 -178 -120 -204 -207 -17 -57 -23 -210 -11 -276
23 -123 85 -216 172 -255 50 -23 168 -28 234 -10 73 20 195 130 195 176 0 21
-30 15 -64 -14 -108 -91 -247 -62 -294 62 -11 29 -32 135 -32 162 0 10 40 13
195 13 l195 0 0 48 c0 89 -42 195 -96 244 -11 9 -44 28 -74 42 -59 27 -152 34
-216 15z m151 -55 c31 -20 45 -70 45 -161 l0 -73 -101 0 -102 0 6 75 c4 41 13
90 21 109 25 61 82 82 131 50z"/>
<path d="M5345 1531 c-91 -25 -161 -77 -213 -159 -47 -72 -65 -150 -60 -251 3
-74 9 -97 41 -162 43 -90 116 -162 180 -180 68 -18 194 -8 252 21 62 30 135
96 135 121 0 25 -2 25 -74 -16 -37 -21 -77 -35 -96 -35 -52 0 -117 37 -149 84
-52 75 -66 136 -66 281 0 112 3 136 22 177 23 50 62 78 110 78 45 0 54 -13 63
-86 11 -89 17 -103 47 -115 46 -17 83 -11 115 21 27 27 30 36 25 71 -7 55 -44
105 -95 130 -47 23 -183 35 -237 20z"/>
</g>
</svg>
